<?xml version="1.0" encoding="UTF-8" standalone="no"?>
<!DOCTYPE svg PUBLIC "-//W3C//DTD SVG 1.1//EN"
 "http://www.w3.org/Graphics/SVG/1.1/DTD/svg11.dtd">
<!-- Generated by graphviz version 2.43.0 (0)
 -->
<!-- Title: sourcetree Pages: 1 -->
<svg width="467pt" height="98pt"
 viewBox="0.00 0.00 467.00 98.00" xmlns="http://www.w3.org/2000/svg" xmlns:xlink="http://www.w3.org/1999/xlink">
<g id="graph0" class="graph" transform="scale(1 1) rotate(0) translate(4 94)">
<title>sourcetree</title>
<polygon fill="white" stroke="transparent" points="-4,4 -4,-94 463,-94 463,4 -4,4"/>
<!-- MulleObjCInetOSFoundation -->
<g id="node1" class="node">
<title>MulleObjCInetOSFoundation</title>
<polygon fill="yellow" stroke="black" points="222,-63 0,-63 0,-27 222,-27 222,-63"/>
<text text-anchor="middle" x="111" y="-41.3" font-family="Times,serif" font-size="14.00">MulleObjCInetOSFoundation</text>
</g>
<!-- MulleObjCInetFoundation -->
<g id="node2" class="node">
<title>MulleObjCInetFoundation</title>
<g id="a_node2"><a xlink:href="https://github.com/MulleWeb/MulleObjCInetFoundation" xlink:title="MulleObjCInetFoundation">
<polygon fill="lightgrey" stroke="black" points="459,-90 258,-90 258,-54 459,-54 459,-90"/>
<text text-anchor="middle" x="358.5" y="-68.3" font-family="Times,serif" font-size="14.00">MulleObjCInetFoundation</text>
</a>
</g>
</g>
<!-- MulleObjCInetOSFoundation&#45;&gt;MulleObjCInetFoundation -->
<g id="edge1" class="edge">
<title>MulleObjCInetOSFoundation&#45;&gt;MulleObjCInetFoundation</title>
<path fill="none" stroke="black" d="M222.18,-57.12C230.7,-58.05 239.31,-59 247.82,-59.94"/>
<polygon fill="black" stroke="black" points="247.45,-63.42 257.77,-61.03 248.21,-56.46 247.45,-63.42"/>
</g>
<!-- MulleObjCOSFoundation -->
<g id="node3" class="node">
<title>MulleObjCOSFoundation</title>
<g id="a_node3"><a xlink:href="https://github.com/MulleFoundation/MulleObjCOSFoundation" xlink:title="MulleObjCOSFoundation">
<polygon fill="lightgrey" stroke="black" points="455.5,-36 261.5,-36 261.5,0 455.5,0 455.5,-36"/>
<text text-anchor="middle" x="358.5" y="-14.3" font-family="Times,serif" font-size="14.00">MulleObjCOSFoundation</text>
</a>
</g>
</g>
<!-- MulleObjCInetOSFoundation&#45;&gt;MulleObjCOSFoundation -->
<g id="edge2" class="edge">
<title>MulleObjCInetOSFoundation&#45;&gt;MulleObjCOSFoundation</title>
<path fill="none" stroke="black" d="M222.18,-32.88C231.83,-31.82 241.59,-30.75 251.2,-29.69"/>
<polygon fill="black" stroke="black" points="251.61,-33.17 261.17,-28.59 250.84,-26.21 251.61,-33.17"/>
</g>
</g>
</svg>
