<?xml version="1.0" encoding="UTF-8" standalone="no"?>
<!DOCTYPE svg PUBLIC "-//W3C//DTD SVG 1.1//EN"
 "http://www.w3.org/Graphics/SVG/1.1/DTD/svg11.dtd">
<!-- Generated by graphviz version 2.43.0 (0)
 -->
<!-- Title: sourcetree Pages: 1 -->
<svg width="1142pt" height="773pt"
 viewBox="0.00 0.00 1142.00 773.00" xmlns="http://www.w3.org/2000/svg" xmlns:xlink="http://www.w3.org/1999/xlink">
<g id="graph0" class="graph" transform="scale(1 1) rotate(0) translate(4 769)">
<title>sourcetree</title>
<polygon fill="white" stroke="transparent" points="-4,4 -4,-769 1138,-769 1138,4 -4,4"/>
<!-- MulleObjCInetOSFoundation -->
<g id="node1" class="node">
<title>MulleObjCInetOSFoundation</title>
<polygon fill="yellow" stroke="black" points="222,-252 0,-252 0,-216 222,-216 222,-252"/>
<text text-anchor="middle" x="111" y="-230.3" font-family="Times,serif" font-size="14.00">MulleObjCInetOSFoundation</text>
</g>
<!-- MulleObjCInetFoundation -->
<g id="node21" class="node">
<title>MulleObjCInetFoundation</title>
<g id="a_node21"><a xlink:href="https://github.com/MulleWeb/MulleObjCInetFoundation" xlink:title="MulleObjCInetFoundation">
<polygon fill="lightgrey" stroke="black" points="459,-346 258,-346 258,-310 459,-310 459,-346"/>
<text text-anchor="middle" x="358.5" y="-324.3" font-family="Times,serif" font-size="14.00">MulleObjCInetFoundation</text>
</a>
</g>
</g>
<!-- MulleObjCInetOSFoundation&#45;&gt;MulleObjCInetFoundation -->
<g id="edge14" class="edge">
<title>MulleObjCInetOSFoundation&#45;&gt;MulleObjCInetFoundation</title>
<path fill="none" stroke="black" d="M159.04,-252.01C199.43,-267.48 257.75,-289.81 300.72,-306.26"/>
<polygon fill="black" stroke="black" points="299.61,-309.58 310.2,-309.89 302.11,-303.04 299.61,-309.58"/>
</g>
<!-- MulleObjCOSFoundation -->
<g id="node22" class="node">
<title>MulleObjCOSFoundation</title>
<g id="a_node22"><a xlink:href="https://github.com/MulleFoundation/MulleObjCOSFoundation" xlink:title="MulleObjCOSFoundation">
<polygon fill="lightgrey" stroke="black" points="455.5,-225 261.5,-225 261.5,-189 455.5,-189 455.5,-225"/>
<text text-anchor="middle" x="358.5" y="-203.3" font-family="Times,serif" font-size="14.00">MulleObjCOSFoundation</text>
</a>
</g>
</g>
<!-- MulleObjCInetOSFoundation&#45;&gt;MulleObjCOSFoundation -->
<g id="edge15" class="edge">
<title>MulleObjCInetOSFoundation&#45;&gt;MulleObjCOSFoundation</title>
<path fill="none" stroke="black" d="M222.18,-221.88C231.83,-220.82 241.59,-219.75 251.2,-218.69"/>
<polygon fill="black" stroke="black" points="251.61,-222.17 261.17,-217.59 250.84,-215.21 251.61,-222.17"/>
</g>
<!-- BSD -->
<g id="node2" class="node">
<title>BSD</title>
<g id="a_node2"><a xlink:href="https://unknown.com/" xlink:title="BSD">
<polygon fill="lightgrey" stroke="black" points="608,-360 554,-360 554,-324 608,-324 608,-360"/>
<text text-anchor="middle" x="581" y="-338.3" font-family="Times,serif" font-size="14.00">BSD</text>
</a>
</g>
</g>
<!-- Darwin -->
<g id="node3" class="node">
<title>Darwin</title>
<g id="a_node3"><a xlink:href="https://unknown.com/" xlink:title="Darwin">
<polygon fill="lightgrey" stroke="black" points="615,-306 547,-306 547,-270 615,-270 615,-306"/>
<text text-anchor="middle" x="581" y="-284.3" font-family="Times,serif" font-size="14.00">Darwin</text>
</a>
</g>
</g>
<!-- FreeBSD -->
<g id="node4" class="node">
<title>FreeBSD</title>
<g id="a_node4"><a xlink:href="https://unknown.com/" xlink:title="FreeBSD">
<polygon fill="lightgrey" stroke="black" points="621.5,-252 540.5,-252 540.5,-216 621.5,-216 621.5,-252"/>
<text text-anchor="middle" x="581" y="-230.3" font-family="Times,serif" font-size="14.00">FreeBSD</text>
</a>
</g>
</g>
<!-- Linux -->
<g id="node5" class="node">
<title>Linux</title>
<g id="a_node5"><a xlink:href="https://unknown.com/" xlink:title="Linux">
<polygon fill="lightgrey" stroke="black" points="609,-198 553,-198 553,-162 609,-162 609,-198"/>
<text text-anchor="middle" x="581" y="-176.3" font-family="Times,serif" font-size="14.00">Linux</text>
</a>
</g>
</g>
<!-- MulleFoundationBase -->
<g id="node6" class="node">
<title>MulleFoundationBase</title>
<g id="a_node6"><a xlink:href="https://github.com/MulleFoundation/MulleFoundationBase" xlink:title="MulleFoundationBase">
<polygon fill="lightgrey" stroke="black" points="667,-414 495,-414 495,-378 667,-378 667,-414"/>
<text text-anchor="middle" x="581" y="-392.3" font-family="Times,serif" font-size="14.00">MulleFoundationBase</text>
</a>
</g>
</g>
<!-- MulleObjC -->
<g id="node7" class="node">
<title>MulleObjC</title>
<g id="a_node7"><a xlink:href="https://github.com/mulle-objc/MulleObjC" xlink:title="MulleObjC">
<polygon fill="lightgrey" stroke="black" points="870.5,-711 778.5,-711 778.5,-675 870.5,-675 870.5,-711"/>
<text text-anchor="middle" x="824.5" y="-689.3" font-family="Times,serif" font-size="14.00">MulleObjC</text>
</a>
</g>
</g>
<!-- MulleFoundationBase&#45;&gt;MulleObjC -->
<g id="edge1" class="edge">
<title>MulleFoundationBase&#45;&gt;MulleObjC</title>
<path fill="none" stroke="black" d="M584.5,-414.14C592.23,-463.06 620.45,-598.57 703,-666 721.21,-680.88 745.94,-687.96 768.26,-691.2"/>
<polygon fill="black" stroke="black" points="767.96,-694.69 778.31,-692.43 768.81,-687.74 767.96,-694.69"/>
</g>
<!-- MulleObjCArchiverFoundation -->
<g id="node8" class="node">
<title>MulleObjCArchiverFoundation</title>
<g id="a_node8"><a xlink:href="https://github.com/MulleFoundation/MulleObjCArchiverFoundation@*" xlink:title="MulleObjCArchiverFoundation">
<polygon fill="lightgrey" stroke="black" points="941,-657 708,-657 708,-621 941,-621 941,-657"/>
<text text-anchor="middle" x="824.5" y="-635.3" font-family="Times,serif" font-size="14.00">MulleObjCArchiverFoundation</text>
</a>
</g>
</g>
<!-- MulleFoundationBase&#45;&gt;MulleObjCArchiverFoundation -->
<g id="edge2" class="edge">
<title>MulleFoundationBase&#45;&gt;MulleObjCArchiverFoundation</title>
<path fill="none" stroke="black" d="M586.67,-414.17C598.46,-456.15 633.55,-560.26 703,-612 704.85,-613.38 706.76,-614.69 708.72,-615.94"/>
<polygon fill="black" stroke="black" points="707.17,-619.08 717.59,-620.99 710.64,-613 707.17,-619.08"/>
</g>
<!-- MulleObjCContainerFoundation -->
<g id="node9" class="node">
<title>MulleObjCContainerFoundation</title>
<g id="a_node9"><a xlink:href="https://github.com/MulleFoundation/MulleObjCContainerFoundation@*" xlink:title="MulleObjCContainerFoundation">
<polygon fill="lightgrey" stroke="black" points="946,-603 703,-603 703,-567 946,-567 946,-603"/>
<text text-anchor="middle" x="824.5" y="-581.3" font-family="Times,serif" font-size="14.00">MulleObjCContainerFoundation</text>
</a>
</g>
</g>
<!-- MulleFoundationBase&#45;&gt;MulleObjCContainerFoundation -->
<g id="edge3" class="edge">
<title>MulleFoundationBase&#45;&gt;MulleObjCContainerFoundation</title>
<path fill="none" stroke="black" d="M590.17,-414.18C606.45,-448.17 646.29,-521.26 703,-558 705.45,-559.58 707.97,-561.08 710.56,-562.48"/>
<polygon fill="black" stroke="black" points="709.08,-565.65 719.6,-566.93 712.17,-559.37 709.08,-565.65"/>
</g>
<!-- MulleObjCKVCFoundation -->
<g id="node10" class="node">
<title>MulleObjCKVCFoundation</title>
<g id="a_node10"><a xlink:href="https://github.com/MulleFoundation/MulleObjCKVCFoundation@*" xlink:title="MulleObjCKVCFoundation">
<polygon fill="lightgrey" stroke="black" points="926,-549 723,-549 723,-513 926,-513 926,-549"/>
<text text-anchor="middle" x="824.5" y="-527.3" font-family="Times,serif" font-size="14.00">MulleObjCKVCFoundation</text>
</a>
</g>
</g>
<!-- MulleFoundationBase&#45;&gt;MulleObjCKVCFoundation -->
<g id="edge4" class="edge">
<title>MulleFoundationBase&#45;&gt;MulleObjCKVCFoundation</title>
<path fill="none" stroke="black" d="M596.79,-414C617.8,-438.32 658.67,-481.23 703,-504 706.6,-505.85 710.32,-507.57 714.13,-509.18"/>
<polygon fill="black" stroke="black" points="713.16,-512.56 723.75,-512.93 715.71,-506.03 713.16,-512.56"/>
</g>
<!-- MulleObjCLockFoundation -->
<g id="node11" class="node">
<title>MulleObjCLockFoundation</title>
<g id="a_node11"><a xlink:href="https://github.com/MulleFoundation/MulleObjCLockFoundation@*" xlink:title="MulleObjCLockFoundation">
<polygon fill="lightgrey" stroke="black" points="927.5,-495 721.5,-495 721.5,-459 927.5,-459 927.5,-495"/>
<text text-anchor="middle" x="824.5" y="-473.3" font-family="Times,serif" font-size="14.00">MulleObjCLockFoundation</text>
</a>
</g>
</g>
<!-- MulleFoundationBase&#45;&gt;MulleObjCLockFoundation -->
<g id="edge5" class="edge">
<title>MulleFoundationBase&#45;&gt;MulleObjCLockFoundation</title>
<path fill="none" stroke="black" d="M617.52,-414.11C641.25,-425.64 673.41,-440.19 703,-450 709.79,-452.25 716.85,-454.37 724,-456.36"/>
<polygon fill="black" stroke="black" points="723.22,-459.78 733.79,-458.99 725.04,-453.01 723.22,-459.78"/>
</g>
<!-- MulleObjCMathFoundation -->
<g id="node12" class="node">
<title>MulleObjCMathFoundation</title>
<g id="a_node12"><a xlink:href="https://github.com/MulleFoundation/MulleObjCMathFoundation@*" xlink:title="MulleObjCMathFoundation">
<polygon fill="lightgrey" stroke="black" points="929.5,-441 719.5,-441 719.5,-405 929.5,-405 929.5,-441"/>
<text text-anchor="middle" x="824.5" y="-419.3" font-family="Times,serif" font-size="14.00">MulleObjCMathFoundation</text>
</a>
</g>
</g>
<!-- MulleFoundationBase&#45;&gt;MulleObjCMathFoundation -->
<g id="edge6" class="edge">
<title>MulleFoundationBase&#45;&gt;MulleObjCMathFoundation</title>
<path fill="none" stroke="black" d="M667.14,-405.52C680.69,-407.03 694.9,-408.62 708.99,-410.2"/>
<polygon fill="black" stroke="black" points="708.9,-413.71 719.23,-411.34 709.68,-406.75 708.9,-413.71"/>
</g>
<!-- MulleObjCPlistFoundation -->
<g id="node13" class="node">
<title>MulleObjCPlistFoundation</title>
<g id="a_node13"><a xlink:href="https://github.com/MulleFoundation/MulleObjCPlistFoundation@*" xlink:title="MulleObjCPlistFoundation">
<polygon fill="lightgrey" stroke="black" points="927,-387 722,-387 722,-351 927,-351 927,-387"/>
<text text-anchor="middle" x="824.5" y="-365.3" font-family="Times,serif" font-size="14.00">MulleObjCPlistFoundation</text>
</a>
</g>
</g>
<!-- MulleFoundationBase&#45;&gt;MulleObjCPlistFoundation -->
<g id="edge7" class="edge">
<title>MulleFoundationBase&#45;&gt;MulleObjCPlistFoundation</title>
<path fill="none" stroke="black" d="M667.14,-386.48C681.49,-384.88 696.57,-383.19 711.47,-381.53"/>
<polygon fill="black" stroke="black" points="712.2,-384.97 721.75,-380.38 711.42,-378.01 712.2,-384.97"/>
</g>
<!-- MulleObjCStandardFoundation -->
<g id="node14" class="node">
<title>MulleObjCStandardFoundation</title>
<g id="a_node14"><a xlink:href="https://github.com/MulleFoundation/MulleObjCStandardFoundation@*" xlink:title="MulleObjCStandardFoundation">
<polygon fill="lightgrey" stroke="black" points="944,-333 705,-333 705,-297 944,-297 944,-333"/>
<text text-anchor="middle" x="824.5" y="-311.3" font-family="Times,serif" font-size="14.00">MulleObjCStandardFoundation</text>
</a>
</g>
</g>
<!-- MulleFoundationBase&#45;&gt;MulleObjCStandardFoundation -->
<g id="edge8" class="edge">
<title>MulleFoundationBase&#45;&gt;MulleObjCStandardFoundation</title>
<path fill="none" stroke="black" d="M646.97,-377.88C653.87,-375.22 660.67,-372.26 667,-369 684.78,-359.84 684.84,-350.37 703,-342 707.34,-340 711.83,-338.15 716.42,-336.42"/>
<polygon fill="black" stroke="black" points="717.68,-339.69 725.96,-333.08 715.36,-333.09 717.68,-339.69"/>
</g>
<!-- MulleObjCTimeFoundation -->
<g id="node15" class="node">
<title>MulleObjCTimeFoundation</title>
<g id="a_node15"><a xlink:href="https://github.com/MulleFoundation/MulleObjCTimeFoundation@*" xlink:title="MulleObjCTimeFoundation">
<polygon fill="lightgrey" stroke="black" points="928.5,-279 720.5,-279 720.5,-243 928.5,-243 928.5,-279"/>
<text text-anchor="middle" x="824.5" y="-257.3" font-family="Times,serif" font-size="14.00">MulleObjCTimeFoundation</text>
</a>
</g>
</g>
<!-- MulleFoundationBase&#45;&gt;MulleObjCTimeFoundation -->
<g id="edge9" class="edge">
<title>MulleFoundationBase&#45;&gt;MulleObjCTimeFoundation</title>
<path fill="none" stroke="black" d="M654.46,-377.99C658.95,-375.39 663.19,-372.41 667,-369 696.35,-342.73 672.53,-312.97 703,-288 705.74,-285.76 708.62,-283.69 711.62,-281.79"/>
<polygon fill="black" stroke="black" points="713.38,-284.82 720.37,-276.85 709.94,-278.72 713.38,-284.82"/>
</g>
<!-- MulleObjCUnicodeFoundation -->
<g id="node16" class="node">
<title>MulleObjCUnicodeFoundation</title>
<g id="a_node16"><a xlink:href="https://github.com/MulleFoundation/MulleObjCUnicodeFoundation@*" xlink:title="MulleObjCUnicodeFoundation">
<polygon fill="lightgrey" stroke="black" points="940,-225 709,-225 709,-189 940,-189 940,-225"/>
<text text-anchor="middle" x="824.5" y="-203.3" font-family="Times,serif" font-size="14.00">MulleObjCUnicodeFoundation</text>
</a>
</g>
</g>
<!-- MulleFoundationBase&#45;&gt;MulleObjCUnicodeFoundation -->
<g id="edge10" class="edge">
<title>MulleFoundationBase&#45;&gt;MulleObjCUnicodeFoundation</title>
<path fill="none" stroke="black" d="M656.27,-377.88C660.17,-375.3 663.79,-372.36 667,-369 709.87,-324.07 658.22,-277.02 703,-234 703.98,-233.06 704.98,-232.15 706.01,-231.27"/>
<polygon fill="black" stroke="black" points="708.39,-233.86 714.31,-225.07 704.2,-228.25 708.39,-233.86"/>
</g>
<!-- MulleObjCUUIDFoundation -->
<g id="node17" class="node">
<title>MulleObjCUUIDFoundation</title>
<g id="a_node17"><a xlink:href="https://github.com/MulleFoundation/MulleObjCUUIDFoundation@*" xlink:title="MulleObjCUUIDFoundation">
<polygon fill="lightgrey" stroke="black" points="931,-171 718,-171 718,-135 931,-135 931,-171"/>
<text text-anchor="middle" x="824.5" y="-149.3" font-family="Times,serif" font-size="14.00">MulleObjCUUIDFoundation</text>
</a>
</g>
</g>
<!-- MulleFoundationBase&#45;&gt;MulleObjCUUIDFoundation -->
<g id="edge11" class="edge">
<title>MulleFoundationBase&#45;&gt;MulleObjCUUIDFoundation</title>
<path fill="none" stroke="black" d="M656.95,-377.88C660.62,-375.3 664.02,-372.36 667,-369 723.75,-305.04 643.52,-241.43 703,-180 705.06,-177.87 707.25,-175.89 709.55,-174.05"/>
<polygon fill="black" stroke="black" points="711.56,-176.92 717.76,-168.34 707.56,-171.18 711.56,-176.92"/>
</g>
<!-- MulleObjCValueFoundation -->
<g id="node18" class="node">
<title>MulleObjCValueFoundation</title>
<g id="a_node18"><a xlink:href="https://github.com/MulleFoundation/MulleObjCValueFoundation@*" xlink:title="MulleObjCValueFoundation">
<polygon fill="lightgrey" stroke="black" points="930.5,-117 718.5,-117 718.5,-81 930.5,-81 930.5,-117"/>
<text text-anchor="middle" x="824.5" y="-95.3" font-family="Times,serif" font-size="14.00">MulleObjCValueFoundation</text>
</a>
</g>
</g>
<!-- MulleFoundationBase&#45;&gt;MulleObjCValueFoundation -->
<g id="edge12" class="edge">
<title>MulleFoundationBase&#45;&gt;MulleObjCValueFoundation</title>
<path fill="none" stroke="black" d="M657.49,-377.75C660.98,-375.2 664.19,-372.3 667,-369 737.76,-285.86 628.68,-205.98 703,-126 705.12,-123.72 707.39,-121.61 709.78,-119.66"/>
<polygon fill="black" stroke="black" points="712.19,-122.24 718.36,-113.63 708.16,-116.52 712.19,-122.24"/>
</g>
<!-- mulle&#45;objc&#45;cc -->
<g id="node19" class="node">
<title>mulle&#45;objc&#45;cc</title>
<g id="a_node19"><a xlink:href="https://github.com/mulle-cc/mulle-objc-cc" xlink:title="mulle&#45;objc&#45;cc">
<polygon fill="lightgrey" stroke="black" points="1113,-765 1003,-765 1003,-729 1113,-729 1113,-765"/>
<text text-anchor="middle" x="1058" y="-743.3" font-family="Times,serif" font-size="14.00">mulle&#45;objc&#45;cc</text>
</a>
</g>
</g>
<!-- MulleObjC&#45;&gt;mulle&#45;objc&#45;cc -->
<g id="edge16" class="edge">
<title>MulleObjC&#45;&gt;mulle&#45;objc&#45;cc</title>
<path fill="none" stroke="black" d="M870.69,-703.54C905.47,-711.65 954.01,-722.98 992.82,-732.03"/>
<polygon fill="black" stroke="black" points="992.45,-735.54 1002.98,-734.4 994.04,-728.72 992.45,-735.54"/>
</g>
<!-- mulle&#45;objc&#45;debug -->
<g id="node20" class="node">
<title>mulle&#45;objc&#45;debug</title>
<g id="a_node20"><a xlink:href="https://github.com/mulle-objc/mulle-objc-debug" xlink:title="mulle&#45;objc&#45;debug">
<polygon fill="lightgrey" stroke="black" points="1127.5,-711 988.5,-711 988.5,-675 1127.5,-675 1127.5,-711"/>
<text text-anchor="middle" x="1058" y="-689.3" font-family="Times,serif" font-size="14.00">mulle&#45;objc&#45;debug</text>
</a>
</g>
</g>
<!-- MulleObjC&#45;&gt;mulle&#45;objc&#45;debug -->
<g id="edge17" class="edge">
<title>MulleObjC&#45;&gt;mulle&#45;objc&#45;debug</title>
<path fill="none" stroke="black" d="M870.69,-693C901.1,-693 942.04,-693 977.79,-693"/>
<polygon fill="black" stroke="black" points="978.21,-696.5 988.21,-693 978.21,-689.5 978.21,-696.5"/>
</g>
<!-- mulle&#45;objc&#45;runtime -->
<g id="node23" class="node">
<title>mulle&#45;objc&#45;runtime</title>
<g id="a_node23"><a xlink:href="https://github.com/mulle-objc/mulle-objc-runtime" xlink:title="mulle&#45;objc&#45;runtime">
<polygon fill="lightgrey" stroke="black" points="1134,-657 982,-657 982,-621 1134,-621 1134,-657"/>
<text text-anchor="middle" x="1058" y="-635.3" font-family="Times,serif" font-size="14.00">mulle&#45;objc&#45;runtime</text>
</a>
</g>
</g>
<!-- MulleObjC&#45;&gt;mulle&#45;objc&#45;runtime -->
<g id="edge18" class="edge">
<title>MulleObjC&#45;&gt;mulle&#45;objc&#45;runtime</title>
<path fill="none" stroke="black" d="M870.75,-683.07C893.37,-678.05 921.16,-671.8 946,-666 955.03,-663.89 964.46,-661.65 973.85,-659.4"/>
<polygon fill="black" stroke="black" points="974.7,-662.79 983.6,-657.05 973.06,-655.99 974.7,-662.79"/>
</g>
<!-- MulleObjCInetFoundation&#45;&gt;MulleFoundationBase -->
<g id="edge13" class="edge">
<title>MulleObjCInetFoundation&#45;&gt;MulleFoundationBase</title>
<path fill="none" stroke="black" d="M418.01,-346.04C446.91,-354.96 481.94,-365.76 512.02,-375.04"/>
<polygon fill="black" stroke="black" points="511.01,-378.39 521.6,-377.99 513.07,-371.7 511.01,-378.39"/>
</g>
<!-- MulleObjCOSFoundation&#45;&gt;BSD -->
<g id="edge19" class="edge">
<title>MulleObjCOSFoundation&#45;&gt;BSD</title>
<path fill="none" stroke="black" d="M377.66,-225.15C402.29,-248.85 448.56,-290.21 495,-315 510.24,-323.13 528.34,-329.31 543.91,-333.68"/>
<polygon fill="black" stroke="black" points="543.16,-337.1 553.72,-336.3 544.97,-330.34 543.16,-337.1"/>
</g>
<!-- MulleObjCOSFoundation&#45;&gt;Darwin -->
<g id="edge20" class="edge">
<title>MulleObjCOSFoundation&#45;&gt;Darwin</title>
<path fill="none" stroke="black" d="M402.53,-225.06C429.01,-235.95 463.76,-249.83 495,-261 508.61,-265.87 523.59,-270.77 537.14,-275.04"/>
<polygon fill="black" stroke="black" points="536.13,-278.39 546.71,-278.03 538.21,-271.71 536.13,-278.39"/>
</g>
<!-- MulleObjCOSFoundation&#45;&gt;FreeBSD -->
<g id="edge21" class="edge">
<title>MulleObjCOSFoundation&#45;&gt;FreeBSD</title>
<path fill="none" stroke="black" d="M455.57,-218.76C481.32,-221.92 508.12,-225.2 530.22,-227.9"/>
<polygon fill="black" stroke="black" points="529.99,-231.4 540.35,-229.14 530.85,-224.45 529.99,-231.4"/>
</g>
<!-- MulleObjCOSFoundation&#45;&gt;Linux -->
<g id="edge22" class="edge">
<title>MulleObjCOSFoundation&#45;&gt;Linux</title>
<path fill="none" stroke="black" d="M455.57,-195.24C486.31,-191.47 518.53,-187.53 542.49,-184.59"/>
<polygon fill="black" stroke="black" points="543.05,-188.05 552.55,-183.36 542.2,-181.1 543.05,-188.05"/>
</g>
<!-- OSBase -->
<g id="node24" class="node">
<title>OSBase</title>
<g id="a_node24"><a xlink:href="https://unknown.com/" xlink:title="OSBase">
<polygon fill="lightgrey" stroke="black" points="617,-144 545,-144 545,-108 617,-108 617,-144"/>
<text text-anchor="middle" x="581" y="-122.3" font-family="Times,serif" font-size="14.00">OSBase</text>
</a>
</g>
</g>
<!-- MulleObjCOSFoundation&#45;&gt;OSBase -->
<g id="edge23" class="edge">
<title>MulleObjCOSFoundation&#45;&gt;OSBase</title>
<path fill="none" stroke="black" d="M402.53,-188.94C429.01,-178.05 463.76,-164.17 495,-153 507.9,-148.39 522.03,-143.74 535,-139.63"/>
<polygon fill="black" stroke="black" points="536.16,-142.94 544.66,-136.6 534.07,-136.26 536.16,-142.94"/>
</g>
<!-- Posix -->
<g id="node25" class="node">
<title>Posix</title>
<g id="a_node25"><a xlink:href="https://unknown.com/" xlink:title="Posix">
<polygon fill="lightgrey" stroke="black" points="608,-90 554,-90 554,-54 608,-54 608,-90"/>
<text text-anchor="middle" x="581" y="-68.3" font-family="Times,serif" font-size="14.00">Posix</text>
</a>
</g>
</g>
<!-- MulleObjCOSFoundation&#45;&gt;Posix -->
<g id="edge24" class="edge">
<title>MulleObjCOSFoundation&#45;&gt;Posix</title>
<path fill="none" stroke="black" d="M377.66,-188.85C402.29,-165.15 448.56,-123.79 495,-99 510.24,-90.87 528.34,-84.69 543.91,-80.32"/>
<polygon fill="black" stroke="black" points="544.97,-83.66 553.72,-77.7 543.16,-76.9 544.97,-83.66"/>
</g>
<!-- Windows -->
<g id="node26" class="node">
<title>Windows</title>
<g id="a_node26"><a xlink:href="https://unknown.com/" xlink:title="Windows">
<polygon fill="lightgrey" stroke="black" points="621.5,-36 540.5,-36 540.5,0 621.5,0 621.5,-36"/>
<text text-anchor="middle" x="581" y="-14.3" font-family="Times,serif" font-size="14.00">Windows</text>
</a>
</g>
</g>
<!-- MulleObjCOSFoundation&#45;&gt;Windows -->
<g id="edge25" class="edge">
<title>MulleObjCOSFoundation&#45;&gt;Windows</title>
<path fill="none" stroke="black" d="M369.87,-188.78C389.8,-155.36 436.69,-84.12 495,-45 505.65,-37.85 518.31,-32.5 530.57,-28.54"/>
<polygon fill="black" stroke="black" points="531.68,-31.86 540.26,-25.65 529.68,-25.15 531.68,-31.86"/>
</g>
</g>
</svg>
