<?xml version="1.0" encoding="UTF-8" standalone="no"?>
<!DOCTYPE svg PUBLIC "-//W3C//DTD SVG 1.1//EN"
 "http://www.w3.org/Graphics/SVG/1.1/DTD/svg11.dtd">
<!-- Generated by graphviz version 2.43.0 (0)
 -->
<!-- Title: sourcetree Pages: 1 -->
<svg width="1142pt" height="800pt"
 viewBox="0.00 0.00 1142.00 800.00" xmlns="http://www.w3.org/2000/svg" xmlns:xlink="http://www.w3.org/1999/xlink">
<g id="graph0" class="graph" transform="scale(1 1) rotate(0) translate(4 796)">
<title>sourcetree</title>
<polygon fill="white" stroke="transparent" points="-4,4 -4,-796 1138,-796 1138,4 -4,4"/>
<!-- MulleObjCInetOSFoundation -->
<g id="node1" class="node">
<title>MulleObjCInetOSFoundation</title>
<polygon fill="yellow" stroke="black" points="222,-252 0,-252 0,-216 222,-216 222,-252"/>
<text text-anchor="middle" x="111" y="-230.3" font-family="Times,serif" font-size="14.00">MulleObjCInetOSFoundation</text>
</g>
<!-- MulleObjCInetFoundation -->
<g id="node22" class="node">
<title>MulleObjCInetFoundation</title>
<g id="a_node22"><a xlink:href="https://github.com/MulleWeb/MulleObjCInetFoundation" xlink:title="MulleObjCInetFoundation">
<polygon fill="lightgrey" stroke="black" points="459,-346 258,-346 258,-310 459,-310 459,-346"/>
<text text-anchor="middle" x="358.5" y="-324.3" font-family="Times,serif" font-size="14.00">MulleObjCInetFoundation</text>
</a>
</g>
</g>
<!-- MulleObjCInetOSFoundation&#45;&gt;MulleObjCInetFoundation -->
<g id="edge15" class="edge">
<title>MulleObjCInetOSFoundation&#45;&gt;MulleObjCInetFoundation</title>
<path fill="none" stroke="black" d="M159.04,-252.01C199.43,-267.48 257.75,-289.81 300.72,-306.26"/>
<polygon fill="black" stroke="black" points="299.61,-309.58 310.2,-309.89 302.11,-303.04 299.61,-309.58"/>
</g>
<!-- MulleObjCOSFoundation -->
<g id="node23" class="node">
<title>MulleObjCOSFoundation</title>
<g id="a_node23"><a xlink:href="https://github.com/MulleFoundation/MulleObjCOSFoundation" xlink:title="MulleObjCOSFoundation">
<polygon fill="lightgrey" stroke="black" points="455.5,-225 261.5,-225 261.5,-189 455.5,-189 455.5,-225"/>
<text text-anchor="middle" x="358.5" y="-203.3" font-family="Times,serif" font-size="14.00">MulleObjCOSFoundation</text>
</a>
</g>
</g>
<!-- MulleObjCInetOSFoundation&#45;&gt;MulleObjCOSFoundation -->
<g id="edge16" class="edge">
<title>MulleObjCInetOSFoundation&#45;&gt;MulleObjCOSFoundation</title>
<path fill="none" stroke="black" d="M222.18,-221.88C231.83,-220.82 241.59,-219.75 251.2,-218.69"/>
<polygon fill="black" stroke="black" points="251.61,-222.17 261.17,-217.59 250.84,-215.21 251.61,-222.17"/>
</g>
<!-- BSD -->
<g id="node2" class="node">
<title>BSD</title>
<g id="a_node2"><a xlink:href="https://unknown.com/" xlink:title="BSD">
<polygon fill="lightgrey" stroke="black" points="608,-360 554,-360 554,-324 608,-324 608,-360"/>
<text text-anchor="middle" x="581" y="-338.3" font-family="Times,serif" font-size="14.00">BSD</text>
</a>
</g>
</g>
<!-- Darwin -->
<g id="node3" class="node">
<title>Darwin</title>
<g id="a_node3"><a xlink:href="https://unknown.com/" xlink:title="Darwin">
<polygon fill="lightgrey" stroke="black" points="615,-306 547,-306 547,-270 615,-270 615,-306"/>
<text text-anchor="middle" x="581" y="-284.3" font-family="Times,serif" font-size="14.00">Darwin</text>
</a>
</g>
</g>
<!-- FreeBSD -->
<g id="node4" class="node">
<title>FreeBSD</title>
<g id="a_node4"><a xlink:href="https://unknown.com/" xlink:title="FreeBSD">
<polygon fill="lightgrey" stroke="black" points="621.5,-252 540.5,-252 540.5,-216 621.5,-216 621.5,-252"/>
<text text-anchor="middle" x="581" y="-230.3" font-family="Times,serif" font-size="14.00">FreeBSD</text>
</a>
</g>
</g>
<!-- Linux -->
<g id="node5" class="node">
<title>Linux</title>
<g id="a_node5"><a xlink:href="https://unknown.com/" xlink:title="Linux">
<polygon fill="lightgrey" stroke="black" points="609,-198 553,-198 553,-162 609,-162 609,-198"/>
<text text-anchor="middle" x="581" y="-176.3" font-family="Times,serif" font-size="14.00">Linux</text>
</a>
</g>
</g>
<!-- MulleFoundationBase -->
<g id="node6" class="node">
<title>MulleFoundationBase</title>
<g id="a_node6"><a xlink:href="https://github.com/MulleFoundation/MulleFoundationBase" xlink:title="MulleFoundationBase">
<polygon fill="lightgrey" stroke="black" points="667,-414 495,-414 495,-378 667,-378 667,-414"/>
<text text-anchor="middle" x="581" y="-392.3" font-family="Times,serif" font-size="14.00">MulleFoundationBase</text>
</a>
</g>
</g>
<!-- MulleObjC -->
<g id="node7" class="node">
<title>MulleObjC</title>
<g id="a_node7"><a xlink:href="https://github.com/mulle-objc/MulleObjC" xlink:title="MulleObjC">
<polygon fill="lightgrey" stroke="black" points="870.5,-738 778.5,-738 778.5,-702 870.5,-702 870.5,-738"/>
<text text-anchor="middle" x="824.5" y="-716.3" font-family="Times,serif" font-size="14.00">MulleObjC</text>
</a>
</g>
</g>
<!-- MulleFoundationBase&#45;&gt;MulleObjC -->
<g id="edge1" class="edge">
<title>MulleFoundationBase&#45;&gt;MulleObjC</title>
<path fill="none" stroke="black" d="M583.67,-414.01C589.5,-466.01 613.74,-617.48 703,-693 721.03,-708.25 745.84,-715.38 768.27,-718.55"/>
<polygon fill="black" stroke="black" points="768.04,-722.04 778.38,-719.74 768.86,-715.09 768.04,-722.04"/>
</g>
<!-- MulleObjCArchiverFoundation -->
<g id="node8" class="node">
<title>MulleObjCArchiverFoundation</title>
<g id="a_node8"><a xlink:href="https://github.com/MulleFoundation/MulleObjCArchiverFoundation@*" xlink:title="MulleObjCArchiverFoundation">
<polygon fill="lightgrey" stroke="black" points="941,-684 708,-684 708,-648 941,-648 941,-684"/>
<text text-anchor="middle" x="824.5" y="-662.3" font-family="Times,serif" font-size="14.00">MulleObjCArchiverFoundation</text>
</a>
</g>
</g>
<!-- MulleFoundationBase&#45;&gt;MulleObjCArchiverFoundation -->
<g id="edge2" class="edge">
<title>MulleFoundationBase&#45;&gt;MulleObjCArchiverFoundation</title>
<path fill="none" stroke="black" d="M585.51,-414.33C595.26,-460.02 627.14,-579.56 703,-639 704.61,-640.26 706.28,-641.47 707.98,-642.63"/>
<polygon fill="black" stroke="black" points="706.44,-645.79 716.81,-647.95 710.06,-639.79 706.44,-645.79"/>
</g>
<!-- MulleObjCContainerFoundation -->
<g id="node9" class="node">
<title>MulleObjCContainerFoundation</title>
<g id="a_node9"><a xlink:href="https://github.com/MulleFoundation/MulleObjCContainerFoundation@*" xlink:title="MulleObjCContainerFoundation">
<polygon fill="lightgrey" stroke="black" points="946,-630 703,-630 703,-594 946,-594 946,-630"/>
<text text-anchor="middle" x="824.5" y="-608.3" font-family="Times,serif" font-size="14.00">MulleObjCContainerFoundation</text>
</a>
</g>
</g>
<!-- MulleFoundationBase&#45;&gt;MulleObjCContainerFoundation -->
<g id="edge3" class="edge">
<title>MulleFoundationBase&#45;&gt;MulleObjCContainerFoundation</title>
<path fill="none" stroke="black" d="M588.19,-414.18C602.17,-452.34 639.97,-540.86 703,-585 705.11,-586.48 707.29,-587.88 709.53,-589.2"/>
<polygon fill="black" stroke="black" points="707.95,-592.33 718.42,-593.95 711.24,-586.15 707.95,-592.33"/>
</g>
<!-- MulleObjCKVCFoundation -->
<g id="node10" class="node">
<title>MulleObjCKVCFoundation</title>
<g id="a_node10"><a xlink:href="https://github.com/MulleFoundation/MulleObjCKVCFoundation@*" xlink:title="MulleObjCKVCFoundation">
<polygon fill="lightgrey" stroke="black" points="926,-576 723,-576 723,-540 926,-540 926,-576"/>
<text text-anchor="middle" x="824.5" y="-554.3" font-family="Times,serif" font-size="14.00">MulleObjCKVCFoundation</text>
</a>
</g>
</g>
<!-- MulleFoundationBase&#45;&gt;MulleObjCKVCFoundation -->
<g id="edge4" class="edge">
<title>MulleFoundationBase&#45;&gt;MulleObjCKVCFoundation</title>
<path fill="none" stroke="black" d="M592.87,-414.12C611.51,-443.54 652.5,-501.39 703,-531 706.44,-533.02 710.01,-534.88 713.69,-536.61"/>
<polygon fill="black" stroke="black" points="712.43,-539.88 723,-540.62 715.2,-533.45 712.43,-539.88"/>
</g>
<!-- MulleObjCLockFoundation -->
<g id="node11" class="node">
<title>MulleObjCLockFoundation</title>
<g id="a_node11"><a xlink:href="https://github.com/MulleFoundation/MulleObjCLockFoundation@*" xlink:title="MulleObjCLockFoundation">
<polygon fill="lightgrey" stroke="black" points="927.5,-522 721.5,-522 721.5,-486 927.5,-486 927.5,-522"/>
<text text-anchor="middle" x="824.5" y="-500.3" font-family="Times,serif" font-size="14.00">MulleObjCLockFoundation</text>
</a>
</g>
</g>
<!-- MulleFoundationBase&#45;&gt;MulleObjCLockFoundation -->
<g id="edge5" class="edge">
<title>MulleFoundationBase&#45;&gt;MulleObjCLockFoundation</title>
<path fill="none" stroke="black" d="M603.74,-414.21C626.91,-432.71 665.36,-460.86 703,-477 707.8,-479.06 712.78,-480.97 717.86,-482.75"/>
<polygon fill="black" stroke="black" points="717.15,-486.19 727.74,-485.99 719.33,-479.54 717.15,-486.19"/>
</g>
<!-- MulleObjCMathFoundation -->
<g id="node12" class="node">
<title>MulleObjCMathFoundation</title>
<g id="a_node12"><a xlink:href="https://github.com/MulleFoundation/MulleObjCMathFoundation@*" xlink:title="MulleObjCMathFoundation">
<polygon fill="lightgrey" stroke="black" points="929.5,-468 719.5,-468 719.5,-432 929.5,-432 929.5,-468"/>
<text text-anchor="middle" x="824.5" y="-446.3" font-family="Times,serif" font-size="14.00">MulleObjCMathFoundation</text>
</a>
</g>
</g>
<!-- MulleFoundationBase&#45;&gt;MulleObjCMathFoundation -->
<g id="edge6" class="edge">
<title>MulleFoundationBase&#45;&gt;MulleObjCMathFoundation</title>
<path fill="none" stroke="black" d="M662.75,-414.06C685.31,-419.1 709.96,-424.61 733.04,-429.77"/>
<polygon fill="black" stroke="black" points="732.3,-433.19 742.82,-431.96 733.83,-426.36 732.3,-433.19"/>
</g>
<!-- MulleObjCPlistFoundation -->
<g id="node13" class="node">
<title>MulleObjCPlistFoundation</title>
<g id="a_node13"><a xlink:href="https://github.com/MulleFoundation/MulleObjCPlistFoundation@*" xlink:title="MulleObjCPlistFoundation">
<polygon fill="lightgrey" stroke="black" points="927,-414 722,-414 722,-378 927,-378 927,-414"/>
<text text-anchor="middle" x="824.5" y="-392.3" font-family="Times,serif" font-size="14.00">MulleObjCPlistFoundation</text>
</a>
</g>
</g>
<!-- MulleFoundationBase&#45;&gt;MulleObjCPlistFoundation -->
<g id="edge7" class="edge">
<title>MulleFoundationBase&#45;&gt;MulleObjCPlistFoundation</title>
<path fill="none" stroke="black" d="M667.14,-396C681.49,-396 696.57,-396 711.47,-396"/>
<polygon fill="black" stroke="black" points="711.75,-399.5 721.75,-396 711.75,-392.5 711.75,-399.5"/>
</g>
<!-- MulleObjCRegexFoundation -->
<g id="node14" class="node">
<title>MulleObjCRegexFoundation</title>
<g id="a_node14"><a xlink:href="https://github.com/MulleFoundation/MulleObjCRegexFoundation" xlink:title="MulleObjCRegexFoundation">
<polygon fill="lightgrey" stroke="black" points="933,-360 716,-360 716,-324 933,-324 933,-360"/>
<text text-anchor="middle" x="824.5" y="-338.3" font-family="Times,serif" font-size="14.00">MulleObjCRegexFoundation</text>
</a>
</g>
</g>
<!-- MulleFoundationBase&#45;&gt;MulleObjCRegexFoundation -->
<g id="edge8" class="edge">
<title>MulleFoundationBase&#45;&gt;MulleObjCRegexFoundation</title>
<path fill="none" stroke="black" d="M662.75,-377.94C685.31,-372.9 709.96,-367.39 733.04,-362.23"/>
<polygon fill="black" stroke="black" points="733.83,-365.64 742.82,-360.04 732.3,-358.81 733.83,-365.64"/>
</g>
<!-- MulleObjCStandardFoundation -->
<g id="node15" class="node">
<title>MulleObjCStandardFoundation</title>
<g id="a_node15"><a xlink:href="https://github.com/MulleFoundation/MulleObjCStandardFoundation@*" xlink:title="MulleObjCStandardFoundation">
<polygon fill="lightgrey" stroke="black" points="944,-306 705,-306 705,-270 944,-270 944,-306"/>
<text text-anchor="middle" x="824.5" y="-284.3" font-family="Times,serif" font-size="14.00">MulleObjCStandardFoundation</text>
</a>
</g>
</g>
<!-- MulleFoundationBase&#45;&gt;MulleObjCStandardFoundation -->
<g id="edge9" class="edge">
<title>MulleFoundationBase&#45;&gt;MulleObjCStandardFoundation</title>
<path fill="none" stroke="black" d="M652.56,-377.88C657.66,-375.3 662.55,-372.35 667,-369 690.05,-351.65 679.22,-331.33 703,-315 705.17,-313.51 707.4,-312.11 709.69,-310.78"/>
<polygon fill="black" stroke="black" points="711.55,-313.76 718.79,-306.02 708.3,-307.55 711.55,-313.76"/>
</g>
<!-- MulleObjCTimeFoundation -->
<g id="node16" class="node">
<title>MulleObjCTimeFoundation</title>
<g id="a_node16"><a xlink:href="https://github.com/MulleFoundation/MulleObjCTimeFoundation@*" xlink:title="MulleObjCTimeFoundation">
<polygon fill="lightgrey" stroke="black" points="928.5,-252 720.5,-252 720.5,-216 928.5,-216 928.5,-252"/>
<text text-anchor="middle" x="824.5" y="-230.3" font-family="Times,serif" font-size="14.00">MulleObjCTimeFoundation</text>
</a>
</g>
</g>
<!-- MulleFoundationBase&#45;&gt;MulleObjCTimeFoundation -->
<g id="edge10" class="edge">
<title>MulleFoundationBase&#45;&gt;MulleObjCTimeFoundation</title>
<path fill="none" stroke="black" d="M655.64,-377.9C659.75,-375.32 663.58,-372.37 667,-369 703.03,-333.48 665.46,-294.92 703,-261 705.71,-258.55 708.59,-256.31 711.6,-254.26"/>
<polygon fill="black" stroke="black" points="713.66,-257.11 720.44,-248.97 710.06,-251.11 713.66,-257.11"/>
</g>
<!-- MulleObjCUnicodeFoundation -->
<g id="node17" class="node">
<title>MulleObjCUnicodeFoundation</title>
<g id="a_node17"><a xlink:href="https://github.com/MulleFoundation/MulleObjCUnicodeFoundation@*" xlink:title="MulleObjCUnicodeFoundation">
<polygon fill="lightgrey" stroke="black" points="940,-198 709,-198 709,-162 940,-162 940,-198"/>
<text text-anchor="middle" x="824.5" y="-176.3" font-family="Times,serif" font-size="14.00">MulleObjCUnicodeFoundation</text>
</a>
</g>
</g>
<!-- MulleFoundationBase&#45;&gt;MulleObjCUnicodeFoundation -->
<g id="edge11" class="edge">
<title>MulleFoundationBase&#45;&gt;MulleObjCUnicodeFoundation</title>
<path fill="none" stroke="black" d="M656.83,-377.78C660.53,-375.22 663.97,-372.31 667,-369 716.78,-314.58 650.89,-259.2 703,-207 703.94,-206.06 704.9,-205.15 705.89,-204.27"/>
<polygon fill="black" stroke="black" points="708.12,-206.97 713.87,-198.07 703.82,-201.44 708.12,-206.97"/>
</g>
<!-- MulleObjCUUIDFoundation -->
<g id="node18" class="node">
<title>MulleObjCUUIDFoundation</title>
<g id="a_node18"><a xlink:href="https://github.com/MulleFoundation/MulleObjCUUIDFoundation@*" xlink:title="MulleObjCUUIDFoundation">
<polygon fill="lightgrey" stroke="black" points="931,-144 718,-144 718,-108 931,-108 931,-144"/>
<text text-anchor="middle" x="824.5" y="-122.3" font-family="Times,serif" font-size="14.00">MulleObjCUUIDFoundation</text>
</a>
</g>
</g>
<!-- MulleFoundationBase&#45;&gt;MulleObjCUUIDFoundation -->
<g id="edge12" class="edge">
<title>MulleFoundationBase&#45;&gt;MulleObjCUUIDFoundation</title>
<path fill="none" stroke="black" d="M657.04,-377.96C660.69,-375.36 664.06,-372.39 667,-369 730.75,-295.46 636.11,-223.69 703,-153 705.07,-150.81 707.28,-148.78 709.6,-146.9"/>
<polygon fill="black" stroke="black" points="711.75,-149.67 717.91,-141.05 707.72,-143.94 711.75,-149.67"/>
</g>
<!-- MulleObjCValueFoundation -->
<g id="node19" class="node">
<title>MulleObjCValueFoundation</title>
<g id="a_node19"><a xlink:href="https://github.com/MulleFoundation/MulleObjCValueFoundation@*" xlink:title="MulleObjCValueFoundation">
<polygon fill="lightgrey" stroke="black" points="930.5,-90 718.5,-90 718.5,-54 930.5,-54 930.5,-90"/>
<text text-anchor="middle" x="824.5" y="-68.3" font-family="Times,serif" font-size="14.00">MulleObjCValueFoundation</text>
</a>
</g>
</g>
<!-- MulleFoundationBase&#45;&gt;MulleObjCValueFoundation -->
<g id="edge13" class="edge">
<title>MulleFoundationBase&#45;&gt;MulleObjCValueFoundation</title>
<path fill="none" stroke="black" d="M657.54,-377.8C661.02,-375.24 664.21,-372.32 667,-369 744.79,-276.24 621.24,-188.28 703,-99 705.1,-96.7 707.36,-94.58 709.74,-92.62"/>
<polygon fill="black" stroke="black" points="712.15,-95.19 718.27,-86.55 708.1,-89.49 712.15,-95.19"/>
</g>
<!-- mulle&#45;objc&#45;cc -->
<g id="node20" class="node">
<title>mulle&#45;objc&#45;cc</title>
<g id="a_node20"><a xlink:href="https://github.com/mulle-cc/mulle-objc-cc" xlink:title="mulle&#45;objc&#45;cc">
<polygon fill="lightgrey" stroke="black" points="1113,-792 1003,-792 1003,-756 1113,-756 1113,-792"/>
<text text-anchor="middle" x="1058" y="-770.3" font-family="Times,serif" font-size="14.00">mulle&#45;objc&#45;cc</text>
</a>
</g>
</g>
<!-- MulleObjC&#45;&gt;mulle&#45;objc&#45;cc -->
<g id="edge17" class="edge">
<title>MulleObjC&#45;&gt;mulle&#45;objc&#45;cc</title>
<path fill="none" stroke="black" d="M870.69,-730.54C905.47,-738.65 954.01,-749.98 992.82,-759.03"/>
<polygon fill="black" stroke="black" points="992.45,-762.54 1002.98,-761.4 994.04,-755.72 992.45,-762.54"/>
</g>
<!-- mulle&#45;objc&#45;debug -->
<g id="node21" class="node">
<title>mulle&#45;objc&#45;debug</title>
<g id="a_node21"><a xlink:href="https://github.com/mulle-objc/mulle-objc-debug" xlink:title="mulle&#45;objc&#45;debug">
<polygon fill="lightgrey" stroke="black" points="1127.5,-738 988.5,-738 988.5,-702 1127.5,-702 1127.5,-738"/>
<text text-anchor="middle" x="1058" y="-716.3" font-family="Times,serif" font-size="14.00">mulle&#45;objc&#45;debug</text>
</a>
</g>
</g>
<!-- MulleObjC&#45;&gt;mulle&#45;objc&#45;debug -->
<g id="edge18" class="edge">
<title>MulleObjC&#45;&gt;mulle&#45;objc&#45;debug</title>
<path fill="none" stroke="black" d="M870.69,-720C901.1,-720 942.04,-720 977.79,-720"/>
<polygon fill="black" stroke="black" points="978.21,-723.5 988.21,-720 978.21,-716.5 978.21,-723.5"/>
</g>
<!-- mulle&#45;objc&#45;runtime -->
<g id="node24" class="node">
<title>mulle&#45;objc&#45;runtime</title>
<g id="a_node24"><a xlink:href="https://github.com/mulle-objc/mulle-objc-runtime" xlink:title="mulle&#45;objc&#45;runtime">
<polygon fill="lightgrey" stroke="black" points="1134,-684 982,-684 982,-648 1134,-648 1134,-684"/>
<text text-anchor="middle" x="1058" y="-662.3" font-family="Times,serif" font-size="14.00">mulle&#45;objc&#45;runtime</text>
</a>
</g>
</g>
<!-- MulleObjC&#45;&gt;mulle&#45;objc&#45;runtime -->
<g id="edge19" class="edge">
<title>MulleObjC&#45;&gt;mulle&#45;objc&#45;runtime</title>
<path fill="none" stroke="black" d="M870.75,-710.07C893.37,-705.05 921.16,-698.8 946,-693 955.03,-690.89 964.46,-688.65 973.85,-686.4"/>
<polygon fill="black" stroke="black" points="974.7,-689.79 983.6,-684.05 973.06,-682.99 974.7,-689.79"/>
</g>
<!-- MulleObjCInetFoundation&#45;&gt;MulleFoundationBase -->
<g id="edge14" class="edge">
<title>MulleObjCInetFoundation&#45;&gt;MulleFoundationBase</title>
<path fill="none" stroke="black" d="M418.01,-346.04C446.91,-354.96 481.94,-365.76 512.02,-375.04"/>
<polygon fill="black" stroke="black" points="511.01,-378.39 521.6,-377.99 513.07,-371.7 511.01,-378.39"/>
</g>
<!-- MulleObjCOSFoundation&#45;&gt;BSD -->
<g id="edge20" class="edge">
<title>MulleObjCOSFoundation&#45;&gt;BSD</title>
<path fill="none" stroke="black" d="M377.66,-225.15C402.29,-248.85 448.56,-290.21 495,-315 510.24,-323.13 528.34,-329.31 543.91,-333.68"/>
<polygon fill="black" stroke="black" points="543.16,-337.1 553.72,-336.3 544.97,-330.34 543.16,-337.1"/>
</g>
<!-- MulleObjCOSFoundation&#45;&gt;Darwin -->
<g id="edge21" class="edge">
<title>MulleObjCOSFoundation&#45;&gt;Darwin</title>
<path fill="none" stroke="black" d="M402.53,-225.06C429.01,-235.95 463.76,-249.83 495,-261 508.61,-265.87 523.59,-270.77 537.14,-275.04"/>
<polygon fill="black" stroke="black" points="536.13,-278.39 546.71,-278.03 538.21,-271.71 536.13,-278.39"/>
</g>
<!-- MulleObjCOSFoundation&#45;&gt;FreeBSD -->
<g id="edge22" class="edge">
<title>MulleObjCOSFoundation&#45;&gt;FreeBSD</title>
<path fill="none" stroke="black" d="M455.57,-218.76C481.32,-221.92 508.12,-225.2 530.22,-227.9"/>
<polygon fill="black" stroke="black" points="529.99,-231.4 540.35,-229.14 530.85,-224.45 529.99,-231.4"/>
</g>
<!-- MulleObjCOSFoundation&#45;&gt;Linux -->
<g id="edge23" class="edge">
<title>MulleObjCOSFoundation&#45;&gt;Linux</title>
<path fill="none" stroke="black" d="M455.57,-195.24C486.31,-191.47 518.53,-187.53 542.49,-184.59"/>
<polygon fill="black" stroke="black" points="543.05,-188.05 552.55,-183.36 542.2,-181.1 543.05,-188.05"/>
</g>
<!-- OSBase -->
<g id="node25" class="node">
<title>OSBase</title>
<g id="a_node25"><a xlink:href="https://unknown.com/" xlink:title="OSBase">
<polygon fill="lightgrey" stroke="black" points="617,-144 545,-144 545,-108 617,-108 617,-144"/>
<text text-anchor="middle" x="581" y="-122.3" font-family="Times,serif" font-size="14.00">OSBase</text>
</a>
</g>
</g>
<!-- MulleObjCOSFoundation&#45;&gt;OSBase -->
<g id="edge24" class="edge">
<title>MulleObjCOSFoundation&#45;&gt;OSBase</title>
<path fill="none" stroke="black" d="M402.53,-188.94C429.01,-178.05 463.76,-164.17 495,-153 507.9,-148.39 522.03,-143.74 535,-139.63"/>
<polygon fill="black" stroke="black" points="536.16,-142.94 544.66,-136.6 534.07,-136.26 536.16,-142.94"/>
</g>
<!-- Posix -->
<g id="node26" class="node">
<title>Posix</title>
<g id="a_node26"><a xlink:href="https://unknown.com/" xlink:title="Posix">
<polygon fill="lightgrey" stroke="black" points="608,-90 554,-90 554,-54 608,-54 608,-90"/>
<text text-anchor="middle" x="581" y="-68.3" font-family="Times,serif" font-size="14.00">Posix</text>
</a>
</g>
</g>
<!-- MulleObjCOSFoundation&#45;&gt;Posix -->
<g id="edge25" class="edge">
<title>MulleObjCOSFoundation&#45;&gt;Posix</title>
<path fill="none" stroke="black" d="M377.66,-188.85C402.29,-165.15 448.56,-123.79 495,-99 510.24,-90.87 528.34,-84.69 543.91,-80.32"/>
<polygon fill="black" stroke="black" points="544.97,-83.66 553.72,-77.7 543.16,-76.9 544.97,-83.66"/>
</g>
<!-- Windows -->
<g id="node27" class="node">
<title>Windows</title>
<g id="a_node27"><a xlink:href="https://unknown.com/" xlink:title="Windows">
<polygon fill="lightgrey" stroke="black" points="621.5,-36 540.5,-36 540.5,0 621.5,0 621.5,-36"/>
<text text-anchor="middle" x="581" y="-14.3" font-family="Times,serif" font-size="14.00">Windows</text>
</a>
</g>
</g>
<!-- MulleObjCOSFoundation&#45;&gt;Windows -->
<g id="edge26" class="edge">
<title>MulleObjCOSFoundation&#45;&gt;Windows</title>
<path fill="none" stroke="black" d="M369.87,-188.78C389.8,-155.36 436.69,-84.12 495,-45 505.65,-37.85 518.31,-32.5 530.57,-28.54"/>
<polygon fill="black" stroke="black" points="531.68,-31.86 540.26,-25.65 529.68,-25.15 531.68,-31.86"/>
</g>
</g>
</svg>
