<?xml version="1.0" encoding="UTF-8" standalone="no"?>
<!DOCTYPE svg PUBLIC "-//W3C//DTD SVG 1.1//EN"
 "http://www.w3.org/Graphics/SVG/1.1/DTD/svg11.dtd">
<!-- Generated by graphviz version 2.43.0 (0)
 -->
<!-- Title: sourcetree Pages: 1 -->
<svg width="1150pt" height="557pt"
 viewBox="0.00 0.00 1150.00 557.00" xmlns="http://www.w3.org/2000/svg" xmlns:xlink="http://www.w3.org/1999/xlink">
<g id="graph0" class="graph" transform="scale(1 1) rotate(0) translate(4 553)">
<title>sourcetree</title>
<polygon fill="white" stroke="transparent" points="-4,4 -4,-553 1146,-553 1146,4 -4,4"/>
<!-- MulleObjCInetOSFoundation -->
<g id="node1" class="node">
<title>MulleObjCInetOSFoundation</title>
<polygon fill="yellow" stroke="black" points="222,-306 0,-306 0,-270 222,-270 222,-306"/>
<text text-anchor="middle" x="111" y="-284.3" font-family="Times,serif" font-size="14.00">MulleObjCInetOSFoundation</text>
</g>
<!-- MulleObjCInetFoundation -->
<g id="node2" class="node">
<title>MulleObjCInetFoundation</title>
<polygon fill="lightgrey" stroke="black" points="459,-441 258,-441 258,-405 459,-405 459,-441"/>
<text text-anchor="middle" x="358.5" y="-419.3" font-family="Times,serif" font-size="14.00">MulleObjCInetFoundation</text>
</g>
<!-- MulleObjCInetOSFoundation&#45;&gt;MulleObjCInetFoundation -->
<g id="edge4" class="edge">
<title>MulleObjCInetOSFoundation&#45;&gt;MulleObjCInetFoundation</title>
<path fill="none" stroke="black" d="M144.85,-306.07C188.92,-330.3 267.2,-373.34 315.5,-399.9"/>
<polygon fill="black" stroke="black" points="314,-403.07 324.45,-404.82 317.37,-396.94 314,-403.07"/>
</g>
<!-- MulleObjCOSFoundation -->
<g id="node6" class="node">
<title>MulleObjCOSFoundation</title>
<polygon fill="lightgrey" stroke="black" points="455.5,-225 261.5,-225 261.5,-189 455.5,-189 455.5,-225"/>
<text text-anchor="middle" x="358.5" y="-203.3" font-family="Times,serif" font-size="14.00">MulleObjCOSFoundation</text>
</g>
<!-- MulleObjCInetOSFoundation&#45;&gt;MulleObjCOSFoundation -->
<g id="edge5" class="edge">
<title>MulleObjCInetOSFoundation&#45;&gt;MulleObjCOSFoundation</title>
<path fill="none" stroke="black" d="M166.79,-269.92C204.18,-257.59 253.85,-241.2 293.13,-228.24"/>
<polygon fill="black" stroke="black" points="294.48,-231.48 302.88,-225.02 292.28,-224.83 294.48,-231.48"/>
</g>
<!-- MulleObjCLockFoundation -->
<g id="node3" class="node">
<title>MulleObjCLockFoundation</title>
<polygon fill="lightgrey" stroke="black" points="717.5,-522 511.5,-522 511.5,-486 717.5,-486 717.5,-522"/>
<text text-anchor="middle" x="614.5" y="-500.3" font-family="Times,serif" font-size="14.00">MulleObjCLockFoundation</text>
</g>
<!-- MulleObjCInetFoundation&#45;&gt;MulleObjCLockFoundation -->
<g id="edge1" class="edge">
<title>MulleObjCInetFoundation&#45;&gt;MulleObjCLockFoundation</title>
<path fill="none" stroke="black" d="M400.12,-441.11C426.73,-452.49 462.48,-466.88 495,-477 502.14,-479.22 509.58,-481.35 517.1,-483.36"/>
<polygon fill="black" stroke="black" points="516.44,-486.81 527,-485.94 518.21,-480.03 516.44,-486.81"/>
</g>
<!-- MulleObjCStandardFoundation -->
<g id="node4" class="node">
<title>MulleObjCStandardFoundation</title>
<polygon fill="lightgrey" stroke="black" points="734,-468 495,-468 495,-432 734,-432 734,-468"/>
<text text-anchor="middle" x="614.5" y="-446.3" font-family="Times,serif" font-size="14.00">MulleObjCStandardFoundation</text>
</g>
<!-- MulleObjCInetFoundation&#45;&gt;MulleObjCStandardFoundation -->
<g id="edge2" class="edge">
<title>MulleObjCInetFoundation&#45;&gt;MulleObjCStandardFoundation</title>
<path fill="none" stroke="black" d="M459.16,-433.59C467.55,-434.49 476.11,-435.4 484.68,-436.31"/>
<polygon fill="black" stroke="black" points="484.42,-439.8 494.73,-437.38 485.16,-432.84 484.42,-439.8"/>
</g>
<!-- mulle&#45;url -->
<g id="node5" class="node">
<title>mulle&#45;url</title>
<polygon fill="lightgrey" stroke="black" points="655,-414 574,-414 574,-378 655,-378 655,-414"/>
<text text-anchor="middle" x="614.5" y="-392.3" font-family="Times,serif" font-size="14.00">mulle&#45;url</text>
</g>
<!-- MulleObjCInetFoundation&#45;&gt;mulle&#45;url -->
<g id="edge3" class="edge">
<title>MulleObjCInetFoundation&#45;&gt;mulle&#45;url</title>
<path fill="none" stroke="black" d="M459.16,-412.41C494.96,-408.6 533.81,-404.47 563.58,-401.31"/>
<polygon fill="black" stroke="black" points="564.13,-404.77 573.71,-400.23 563.39,-397.81 564.13,-404.77"/>
</g>
<!-- MulleObjCContainerFoundation -->
<g id="node14" class="node">
<title>MulleObjCContainerFoundation</title>
<polygon fill="lightgrey" stroke="black" points="1013,-549 770,-549 770,-513 1013,-513 1013,-549"/>
<text text-anchor="middle" x="891.5" y="-527.3" font-family="Times,serif" font-size="14.00">MulleObjCContainerFoundation</text>
</g>
<!-- MulleObjCStandardFoundation&#45;&gt;MulleObjCContainerFoundation -->
<g id="edge13" class="edge">
<title>MulleObjCStandardFoundation&#45;&gt;MulleObjCContainerFoundation</title>
<path fill="none" stroke="black" d="M711.11,-468.06C719,-470.67 726.72,-473.63 734,-477 752.15,-485.41 751.84,-495.63 770,-504 774.34,-506 778.83,-507.85 783.42,-509.58"/>
<polygon fill="black" stroke="black" points="782.36,-512.91 792.96,-512.92 784.68,-506.31 782.36,-512.91"/>
</g>
<!-- MulleObjCTimeFoundation -->
<g id="node15" class="node">
<title>MulleObjCTimeFoundation</title>
<polygon fill="lightgrey" stroke="black" points="995.5,-495 787.5,-495 787.5,-459 995.5,-459 995.5,-495"/>
<text text-anchor="middle" x="891.5" y="-473.3" font-family="Times,serif" font-size="14.00">MulleObjCTimeFoundation</text>
</g>
<!-- MulleObjCStandardFoundation&#45;&gt;MulleObjCTimeFoundation -->
<g id="edge14" class="edge">
<title>MulleObjCStandardFoundation&#45;&gt;MulleObjCTimeFoundation</title>
<path fill="none" stroke="black" d="M734.12,-461.65C748.39,-463.05 762.94,-464.48 777.13,-465.87"/>
<polygon fill="black" stroke="black" points="777.1,-469.38 787.4,-466.88 777.79,-462.42 777.1,-469.38"/>
</g>
<!-- MulleObjCValueFoundation -->
<g id="node16" class="node">
<title>MulleObjCValueFoundation</title>
<polygon fill="lightgrey" stroke="black" points="997.5,-441 785.5,-441 785.5,-405 997.5,-405 997.5,-441"/>
<text text-anchor="middle" x="891.5" y="-419.3" font-family="Times,serif" font-size="14.00">MulleObjCValueFoundation</text>
</g>
<!-- MulleObjCStandardFoundation&#45;&gt;MulleObjCValueFoundation -->
<g id="edge15" class="edge">
<title>MulleObjCStandardFoundation&#45;&gt;MulleObjCValueFoundation</title>
<path fill="none" stroke="black" d="M734.12,-438.35C747.67,-437.02 761.48,-435.67 774.99,-434.34"/>
<polygon fill="black" stroke="black" points="775.65,-437.79 785.26,-433.33 774.96,-430.83 775.65,-437.79"/>
</g>
<!-- mulle&#45;unicode -->
<g id="node17" class="node">
<title>mulle&#45;unicode</title>
<polygon fill="lightgrey" stroke="black" points="949.5,-387 833.5,-387 833.5,-351 949.5,-351 949.5,-387"/>
<text text-anchor="middle" x="891.5" y="-365.3" font-family="Times,serif" font-size="14.00">mulle&#45;unicode</text>
</g>
<!-- MulleObjCStandardFoundation&#45;&gt;mulle&#45;unicode -->
<g id="edge16" class="edge">
<title>MulleObjCStandardFoundation&#45;&gt;mulle&#45;unicode</title>
<path fill="none" stroke="black" d="M711.11,-431.94C719,-429.33 726.72,-426.37 734,-423 752.15,-414.59 751.84,-404.37 770,-396 786.67,-388.31 805.68,-382.75 823.59,-378.74"/>
<polygon fill="black" stroke="black" points="824.34,-382.16 833.4,-376.68 822.89,-375.31 824.34,-382.16"/>
</g>
<!-- src/BSD -->
<g id="node7" class="node">
<title>src/BSD</title>
<polygon fill="lightgrey" stroke="black" points="651.5,-360 577.5,-360 577.5,-324 651.5,-324 651.5,-360"/>
<text text-anchor="middle" x="614.5" y="-338.3" font-family="Times,serif" font-size="14.00">src/BSD</text>
</g>
<!-- MulleObjCOSFoundation&#45;&gt;src/BSD -->
<g id="edge6" class="edge">
<title>MulleObjCOSFoundation&#45;&gt;src/BSD</title>
<path fill="none" stroke="black" d="M376.95,-225.32C401.14,-249.61 447.29,-292.04 495,-315 517.59,-325.87 544.73,-332.47 567.34,-336.41"/>
<polygon fill="black" stroke="black" points="566.94,-339.89 577.37,-338.05 568.07,-332.99 566.94,-339.89"/>
</g>
<!-- src/Darwin -->
<g id="node8" class="node">
<title>src/Darwin</title>
<polygon fill="lightgrey" stroke="black" points="662,-306 567,-306 567,-270 662,-270 662,-306"/>
<text text-anchor="middle" x="614.5" y="-284.3" font-family="Times,serif" font-size="14.00">src/Darwin</text>
</g>
<!-- MulleObjCOSFoundation&#45;&gt;src/Darwin -->
<g id="edge7" class="edge">
<title>MulleObjCOSFoundation&#45;&gt;src/Darwin</title>
<path fill="none" stroke="black" d="M400.12,-225.11C426.73,-236.49 462.48,-250.88 495,-261 514.99,-267.22 537.29,-272.68 557.11,-277.02"/>
<polygon fill="black" stroke="black" points="556.4,-280.45 566.91,-279.13 557.87,-273.61 556.4,-280.45"/>
</g>
<!-- src/FreeBSD -->
<g id="node9" class="node">
<title>src/FreeBSD</title>
<polygon fill="lightgrey" stroke="black" points="668,-252 561,-252 561,-216 668,-216 668,-252"/>
<text text-anchor="middle" x="614.5" y="-230.3" font-family="Times,serif" font-size="14.00">src/FreeBSD</text>
</g>
<!-- MulleObjCOSFoundation&#45;&gt;src/FreeBSD -->
<g id="edge8" class="edge">
<title>MulleObjCOSFoundation&#45;&gt;src/FreeBSD</title>
<path fill="none" stroke="black" d="M455.53,-217.21C487.31,-220.59 521.84,-224.26 550.5,-227.3"/>
<polygon fill="black" stroke="black" points="550.46,-230.82 560.77,-228.39 551.2,-223.86 550.46,-230.82"/>
</g>
<!-- src/Linux -->
<g id="node10" class="node">
<title>src/Linux</title>
<polygon fill="lightgrey" stroke="black" points="656,-198 573,-198 573,-162 656,-162 656,-198"/>
<text text-anchor="middle" x="614.5" y="-176.3" font-family="Times,serif" font-size="14.00">src/Linux</text>
</g>
<!-- MulleObjCOSFoundation&#45;&gt;src/Linux -->
<g id="edge9" class="edge">
<title>MulleObjCOSFoundation&#45;&gt;src/Linux</title>
<path fill="none" stroke="black" d="M455.53,-196.79C492,-192.92 532.11,-188.65 562.79,-185.39"/>
<polygon fill="black" stroke="black" points="563.23,-188.86 572.81,-184.33 562.49,-181.9 563.23,-188.86"/>
</g>
<!-- src/OSBase -->
<g id="node11" class="node">
<title>src/OSBase</title>
<polygon fill="lightgrey" stroke="black" points="663.5,-144 565.5,-144 565.5,-108 663.5,-108 663.5,-144"/>
<text text-anchor="middle" x="614.5" y="-122.3" font-family="Times,serif" font-size="14.00">src/OSBase</text>
</g>
<!-- MulleObjCOSFoundation&#45;&gt;src/OSBase -->
<g id="edge10" class="edge">
<title>MulleObjCOSFoundation&#45;&gt;src/OSBase</title>
<path fill="none" stroke="black" d="M400.12,-188.89C426.73,-177.51 462.48,-163.12 495,-153 514.47,-146.94 536.13,-141.61 555.55,-137.32"/>
<polygon fill="black" stroke="black" points="556.45,-140.71 565.48,-135.17 554.97,-133.86 556.45,-140.71"/>
</g>
<!-- src/Posix -->
<g id="node12" class="node">
<title>src/Posix</title>
<polygon fill="lightgrey" stroke="black" points="654.5,-90 574.5,-90 574.5,-54 654.5,-54 654.5,-90"/>
<text text-anchor="middle" x="614.5" y="-68.3" font-family="Times,serif" font-size="14.00">src/Posix</text>
</g>
<!-- MulleObjCOSFoundation&#45;&gt;src/Posix -->
<g id="edge11" class="edge">
<title>MulleObjCOSFoundation&#45;&gt;src/Posix</title>
<path fill="none" stroke="black" d="M376.95,-188.68C401.14,-164.39 447.29,-121.96 495,-99 516.58,-88.61 542.33,-82.13 564.3,-78.13"/>
<polygon fill="black" stroke="black" points="565.15,-81.54 574.42,-76.41 563.98,-74.63 565.15,-81.54"/>
</g>
<!-- src/Windows -->
<g id="node13" class="node">
<title>src/Windows</title>
<polygon fill="lightgrey" stroke="black" points="668,-36 561,-36 561,0 668,0 668,-36"/>
<text text-anchor="middle" x="614.5" y="-14.3" font-family="Times,serif" font-size="14.00">src/Windows</text>
</g>
<!-- MulleObjCOSFoundation&#45;&gt;src/Windows -->
<g id="edge12" class="edge">
<title>MulleObjCOSFoundation&#45;&gt;src/Windows</title>
<path fill="none" stroke="black" d="M369.26,-188.84C388.52,-154.88 434.79,-81.84 495,-45 511.71,-34.78 531.87,-28.42 550.8,-24.47"/>
<polygon fill="black" stroke="black" points="551.68,-27.86 560.86,-22.56 550.38,-20.98 551.68,-27.86"/>
</g>
<!-- mulle&#45;mmap -->
<g id="node20" class="node">
<title>mulle&#45;mmap</title>
<polygon fill="lightgrey" stroke="black" points="944,-171 839,-171 839,-135 944,-135 944,-171"/>
<text text-anchor="middle" x="891.5" y="-149.3" font-family="Times,serif" font-size="14.00">mulle&#45;mmap</text>
</g>
<!-- src/OSBase&#45;&gt;mulle&#45;mmap -->
<g id="edge19" class="edge">
<title>src/OSBase&#45;&gt;mulle&#45;mmap</title>
<path fill="none" stroke="black" d="M663.72,-130.73C709.54,-135.23 778.68,-142.02 828.57,-146.92"/>
<polygon fill="black" stroke="black" points="828.3,-150.41 838.59,-147.9 828.98,-143.44 828.3,-150.41"/>
</g>
<!-- MulleObjCPlistFoundation -->
<g id="node21" class="node">
<title>MulleObjCPlistFoundation</title>
<polygon fill="lightgrey" stroke="black" points="994,-117 789,-117 789,-81 994,-81 994,-117"/>
<text text-anchor="middle" x="891.5" y="-95.3" font-family="Times,serif" font-size="14.00">MulleObjCPlistFoundation</text>
</g>
<!-- src/OSBase&#45;&gt;MulleObjCPlistFoundation -->
<g id="edge20" class="edge">
<title>src/OSBase&#45;&gt;MulleObjCPlistFoundation</title>
<path fill="none" stroke="black" d="M663.72,-121.27C695.6,-118.14 738.76,-113.9 778.87,-109.96"/>
<polygon fill="black" stroke="black" points="779.39,-113.43 789,-108.97 778.7,-106.46 779.39,-113.43"/>
</g>
<!-- MulleObjC -->
<g id="node18" class="node">
<title>MulleObjC</title>
<polygon fill="lightgrey" stroke="black" points="1141.5,-522 1049.5,-522 1049.5,-486 1141.5,-486 1141.5,-522"/>
<text text-anchor="middle" x="1095.5" y="-500.3" font-family="Times,serif" font-size="14.00">MulleObjC</text>
</g>
<!-- MulleObjCTimeFoundation&#45;&gt;MulleObjC -->
<g id="edge17" class="edge">
<title>MulleObjCTimeFoundation&#45;&gt;MulleObjC</title>
<path fill="none" stroke="black" d="M995.57,-490.78C1010.61,-492.79 1025.58,-494.79 1039.16,-496.6"/>
<polygon fill="black" stroke="black" points="1038.88,-500.1 1049.25,-497.95 1039.81,-493.16 1038.88,-500.1"/>
</g>
<!-- mulle&#45;time -->
<g id="node19" class="node">
<title>mulle&#45;time</title>
<polygon fill="lightgrey" stroke="black" points="1142,-468 1049,-468 1049,-432 1142,-432 1142,-468"/>
<text text-anchor="middle" x="1095.5" y="-446.3" font-family="Times,serif" font-size="14.00">mulle&#45;time</text>
</g>
<!-- MulleObjCTimeFoundation&#45;&gt;mulle&#45;time -->
<g id="edge18" class="edge">
<title>MulleObjCTimeFoundation&#45;&gt;mulle&#45;time</title>
<path fill="none" stroke="black" d="M995.57,-463.22C1010.45,-461.23 1025.27,-459.25 1038.74,-457.45"/>
<polygon fill="black" stroke="black" points="1039.31,-460.91 1048.76,-456.11 1038.38,-453.97 1039.31,-460.91"/>
</g>
</g>
</svg>
