<?xml version="1.0" encoding="UTF-8" standalone="no"?>
<!DOCTYPE svg PUBLIC "-//W3C//DTD SVG 1.1//EN"
 "http://www.w3.org/Graphics/SVG/1.1/DTD/svg11.dtd">
<!-- Generated by graphviz version 2.43.0 (0)
 -->
<!-- Title: sourcetree Pages: 1 -->
<svg width="1429pt" height="260pt"
 viewBox="0.00 0.00 1429.00 260.00" xmlns="http://www.w3.org/2000/svg" xmlns:xlink="http://www.w3.org/1999/xlink">
<g id="graph0" class="graph" transform="scale(1 1) rotate(0) translate(4 256)">
<title>sourcetree</title>
<polygon fill="white" stroke="transparent" points="-4,4 -4,-256 1425,-256 1425,4 -4,4"/>
<!-- MulleObjCInetOSFoundation -->
<g id="node1" class="node">
<title>MulleObjCInetOSFoundation</title>
<polygon fill="yellow" stroke="black" points="883.5,-252 661.5,-252 661.5,-216 883.5,-216 883.5,-252"/>
<text text-anchor="middle" x="772.5" y="-230.3" font-family="Times,serif" font-size="14.00">MulleObjCInetOSFoundation</text>
</g>
<!-- MulleObjCInetFoundation -->
<g id="node2" class="node">
<title>MulleObjCInetFoundation</title>
<polygon fill="lightgrey" stroke="black" points="624,-180 423,-180 423,-144 624,-144 624,-180"/>
<text text-anchor="middle" x="523.5" y="-158.3" font-family="Times,serif" font-size="14.00">MulleObjCInetFoundation</text>
</g>
<!-- MulleObjCInetOSFoundation&#45;&gt;MulleObjCInetFoundation -->
<g id="edge4" class="edge">
<title>MulleObjCInetOSFoundation&#45;&gt;MulleObjCInetFoundation</title>
<path fill="none" stroke="black" d="M711.91,-215.97C676.36,-205.97 631.28,-193.3 594.12,-182.85"/>
<polygon fill="black" stroke="black" points="594.94,-179.45 584.37,-180.11 593.05,-186.19 594.94,-179.45"/>
</g>
<!-- mulle&#45;objc&#45;list -->
<g id="node6" class="node">
<title>mulle&#45;objc&#45;list</title>
<polygon fill="lightgrey" stroke="black" points="831,-180 714,-180 714,-144 831,-144 831,-180"/>
<text text-anchor="middle" x="772.5" y="-158.3" font-family="Times,serif" font-size="14.00">mulle&#45;objc&#45;list</text>
</g>
<!-- MulleObjCInetOSFoundation&#45;&gt;mulle&#45;objc&#45;list -->
<g id="edge5" class="edge">
<title>MulleObjCInetOSFoundation&#45;&gt;mulle&#45;objc&#45;list</title>
<path fill="none" stroke="black" d="M772.5,-215.7C772.5,-207.98 772.5,-198.71 772.5,-190.11"/>
<polygon fill="black" stroke="black" points="776,-190.1 772.5,-180.1 769,-190.1 776,-190.1"/>
</g>
<!-- MulleObjCOSFoundation -->
<g id="node7" class="node">
<title>MulleObjCOSFoundation</title>
<polygon fill="lightgrey" stroke="black" points="1079.5,-180 885.5,-180 885.5,-144 1079.5,-144 1079.5,-180"/>
<text text-anchor="middle" x="982.5" y="-158.3" font-family="Times,serif" font-size="14.00">MulleObjCOSFoundation</text>
</g>
<!-- MulleObjCInetOSFoundation&#45;&gt;MulleObjCOSFoundation -->
<g id="edge6" class="edge">
<title>MulleObjCInetOSFoundation&#45;&gt;MulleObjCOSFoundation</title>
<path fill="none" stroke="black" d="M823.6,-215.97C853.07,-206.14 890.31,-193.73 921.33,-183.39"/>
<polygon fill="black" stroke="black" points="922.79,-186.59 931.17,-180.11 920.57,-179.95 922.79,-186.59"/>
</g>
<!-- MulleObjCLockFoundation -->
<g id="node3" class="node">
<title>MulleObjCLockFoundation</title>
<polygon fill="lightgrey" stroke="black" points="244.5,-108 38.5,-108 38.5,-72 244.5,-72 244.5,-108"/>
<text text-anchor="middle" x="141.5" y="-86.3" font-family="Times,serif" font-size="14.00">MulleObjCLockFoundation</text>
</g>
<!-- MulleObjCInetFoundation&#45;&gt;MulleObjCLockFoundation -->
<g id="edge1" class="edge">
<title>MulleObjCInetFoundation&#45;&gt;MulleObjCLockFoundation</title>
<path fill="none" stroke="black" d="M430.54,-143.97C374.28,-133.66 302.44,-120.49 244.46,-109.87"/>
<polygon fill="black" stroke="black" points="245.01,-106.41 234.54,-108.05 243.75,-113.3 245.01,-106.41"/>
</g>
<!-- MulleObjCStandardFoundation -->
<g id="node4" class="node">
<title>MulleObjCStandardFoundation</title>
<polygon fill="lightgrey" stroke="black" points="550,-108 311,-108 311,-72 550,-72 550,-108"/>
<text text-anchor="middle" x="430.5" y="-86.3" font-family="Times,serif" font-size="14.00">MulleObjCStandardFoundation</text>
</g>
<!-- MulleObjCInetFoundation&#45;&gt;MulleObjCStandardFoundation -->
<g id="edge2" class="edge">
<title>MulleObjCInetFoundation&#45;&gt;MulleObjCStandardFoundation</title>
<path fill="none" stroke="black" d="M500.51,-143.7C488.69,-134.8 474.11,-123.82 461.32,-114.2"/>
<polygon fill="black" stroke="black" points="463.32,-111.32 453.22,-108.1 459.11,-116.91 463.32,-111.32"/>
</g>
<!-- mulle&#45;url -->
<g id="node5" class="node">
<title>mulle&#45;url</title>
<polygon fill="lightgrey" stroke="black" points="649,-108 568,-108 568,-72 649,-72 649,-108"/>
<text text-anchor="middle" x="608.5" y="-86.3" font-family="Times,serif" font-size="14.00">mulle&#45;url</text>
</g>
<!-- MulleObjCInetFoundation&#45;&gt;mulle&#45;url -->
<g id="edge3" class="edge">
<title>MulleObjCInetFoundation&#45;&gt;mulle&#45;url</title>
<path fill="none" stroke="black" d="M544.51,-143.7C555.22,-134.88 568.39,-124.03 580,-114.47"/>
<polygon fill="black" stroke="black" points="582.24,-117.16 587.73,-108.1 577.79,-111.76 582.24,-117.16"/>
</g>
<!-- mulle&#45;time -->
<g id="node8" class="node">
<title>mulle&#45;time</title>
<polygon fill="lightgrey" stroke="black" points="93,-36 0,-36 0,0 93,0 93,-36"/>
<text text-anchor="middle" x="46.5" y="-14.3" font-family="Times,serif" font-size="14.00">mulle&#45;time</text>
</g>
<!-- MulleObjCLockFoundation&#45;&gt;mulle&#45;time -->
<g id="edge7" class="edge">
<title>MulleObjCLockFoundation&#45;&gt;mulle&#45;time</title>
<path fill="none" stroke="black" d="M118.02,-71.7C105.94,-62.8 91.05,-51.82 77.98,-42.2"/>
<polygon fill="black" stroke="black" points="79.84,-39.22 69.71,-36.1 75.69,-44.85 79.84,-39.22"/>
</g>
<!-- MulleObjCContainerFoundation -->
<g id="node16" class="node">
<title>MulleObjCContainerFoundation</title>
<polygon fill="lightgrey" stroke="black" points="354,-36 111,-36 111,0 354,0 354,-36"/>
<text text-anchor="middle" x="232.5" y="-14.3" font-family="Times,serif" font-size="14.00">MulleObjCContainerFoundation</text>
</g>
<!-- MulleObjCStandardFoundation&#45;&gt;MulleObjCContainerFoundation -->
<g id="edge15" class="edge">
<title>MulleObjCStandardFoundation&#45;&gt;MulleObjCContainerFoundation</title>
<path fill="none" stroke="black" d="M382.32,-71.97C354.65,-62.19 319.72,-49.84 290.55,-39.52"/>
<polygon fill="black" stroke="black" points="291.49,-36.14 280.9,-36.11 289.16,-42.74 291.49,-36.14"/>
</g>
<!-- MulleObjCValueFoundation -->
<g id="node17" class="node">
<title>MulleObjCValueFoundation</title>
<polygon fill="lightgrey" stroke="black" points="584.5,-36 372.5,-36 372.5,0 584.5,0 584.5,-36"/>
<text text-anchor="middle" x="478.5" y="-14.3" font-family="Times,serif" font-size="14.00">MulleObjCValueFoundation</text>
</g>
<!-- MulleObjCStandardFoundation&#45;&gt;MulleObjCValueFoundation -->
<g id="edge16" class="edge">
<title>MulleObjCStandardFoundation&#45;&gt;MulleObjCValueFoundation</title>
<path fill="none" stroke="black" d="M442.37,-71.7C448,-63.47 454.85,-53.48 461.07,-44.42"/>
<polygon fill="black" stroke="black" points="464,-46.33 466.77,-36.1 458.23,-42.37 464,-46.33"/>
</g>
<!-- mulle&#45;unicode -->
<g id="node18" class="node">
<title>mulle&#45;unicode</title>
<polygon fill="lightgrey" stroke="black" points="718.5,-36 602.5,-36 602.5,0 718.5,0 718.5,-36"/>
<text text-anchor="middle" x="660.5" y="-14.3" font-family="Times,serif" font-size="14.00">mulle&#45;unicode</text>
</g>
<!-- MulleObjCStandardFoundation&#45;&gt;mulle&#45;unicode -->
<g id="edge17" class="edge">
<title>MulleObjCStandardFoundation&#45;&gt;mulle&#45;unicode</title>
<path fill="none" stroke="black" d="M486.47,-71.97C519.03,-62.06 560.24,-49.51 594.39,-39.12"/>
<polygon fill="black" stroke="black" points="595.73,-42.37 604.28,-36.11 593.69,-35.67 595.73,-42.37"/>
</g>
<!-- src/BSD -->
<g id="node9" class="node">
<title>src/BSD</title>
<polygon fill="lightgrey" stroke="black" points="741.5,-108 667.5,-108 667.5,-72 741.5,-72 741.5,-108"/>
<text text-anchor="middle" x="704.5" y="-86.3" font-family="Times,serif" font-size="14.00">src/BSD</text>
</g>
<!-- MulleObjCOSFoundation&#45;&gt;src/BSD -->
<g id="edge8" class="edge">
<title>MulleObjCOSFoundation&#45;&gt;src/BSD</title>
<path fill="none" stroke="black" d="M895.87,-143.99C854.54,-135.22 804.31,-123.6 751.42,-108.09"/>
<polygon fill="black" stroke="black" points="752.1,-104.64 741.52,-105.15 750.11,-111.35 752.1,-104.64"/>
</g>
<!-- src/Darwin -->
<g id="node10" class="node">
<title>src/Darwin</title>
<polygon fill="lightgrey" stroke="black" points="855,-108 760,-108 760,-72 855,-72 855,-108"/>
<text text-anchor="middle" x="807.5" y="-86.3" font-family="Times,serif" font-size="14.00">src/Darwin</text>
</g>
<!-- MulleObjCOSFoundation&#45;&gt;src/Darwin -->
<g id="edge9" class="edge">
<title>MulleObjCOSFoundation&#45;&gt;src/Darwin</title>
<path fill="none" stroke="black" d="M939.69,-143.88C915.55,-134.22 885.22,-122.09 859.69,-111.88"/>
<polygon fill="black" stroke="black" points="860.76,-108.53 850.17,-108.07 858.16,-115.03 860.76,-108.53"/>
</g>
<!-- src/FreeBSD -->
<g id="node11" class="node">
<title>src/FreeBSD</title>
<polygon fill="lightgrey" stroke="black" points="980,-108 873,-108 873,-72 980,-72 980,-108"/>
<text text-anchor="middle" x="926.5" y="-86.3" font-family="Times,serif" font-size="14.00">src/FreeBSD</text>
</g>
<!-- MulleObjCOSFoundation&#45;&gt;src/FreeBSD -->
<g id="edge10" class="edge">
<title>MulleObjCOSFoundation&#45;&gt;src/FreeBSD</title>
<path fill="none" stroke="black" d="M968.66,-143.7C962.01,-135.39 953.92,-125.28 946.61,-116.14"/>
<polygon fill="black" stroke="black" points="949.16,-113.73 940.18,-108.1 943.7,-118.1 949.16,-113.73"/>
</g>
<!-- src/Linux -->
<g id="node12" class="node">
<title>src/Linux</title>
<polygon fill="lightgrey" stroke="black" points="1081,-108 998,-108 998,-72 1081,-72 1081,-108"/>
<text text-anchor="middle" x="1039.5" y="-86.3" font-family="Times,serif" font-size="14.00">src/Linux</text>
</g>
<!-- MulleObjCOSFoundation&#45;&gt;src/Linux -->
<g id="edge11" class="edge">
<title>MulleObjCOSFoundation&#45;&gt;src/Linux</title>
<path fill="none" stroke="black" d="M996.59,-143.7C1003.42,-135.3 1011.76,-125.07 1019.26,-115.86"/>
<polygon fill="black" stroke="black" points="1021.97,-118.07 1025.57,-108.1 1016.54,-113.65 1021.97,-118.07"/>
</g>
<!-- src/OSBase -->
<g id="node13" class="node">
<title>src/OSBase</title>
<polygon fill="lightgrey" stroke="black" points="1197.5,-108 1099.5,-108 1099.5,-72 1197.5,-72 1197.5,-108"/>
<text text-anchor="middle" x="1148.5" y="-86.3" font-family="Times,serif" font-size="14.00">src/OSBase</text>
</g>
<!-- MulleObjCOSFoundation&#45;&gt;src/OSBase -->
<g id="edge12" class="edge">
<title>MulleObjCOSFoundation&#45;&gt;src/OSBase</title>
<path fill="none" stroke="black" d="M1023.11,-143.88C1045.9,-134.26 1074.53,-122.19 1098.67,-112.01"/>
<polygon fill="black" stroke="black" points="1100.17,-115.18 1108.02,-108.07 1097.45,-108.73 1100.17,-115.18"/>
</g>
<!-- src/Posix -->
<g id="node14" class="node">
<title>src/Posix</title>
<polygon fill="lightgrey" stroke="black" points="1295.5,-108 1215.5,-108 1215.5,-72 1295.5,-72 1295.5,-108"/>
<text text-anchor="middle" x="1255.5" y="-86.3" font-family="Times,serif" font-size="14.00">src/Posix</text>
</g>
<!-- MulleObjCOSFoundation&#45;&gt;src/Posix -->
<g id="edge13" class="edge">
<title>MulleObjCOSFoundation&#45;&gt;src/Posix</title>
<path fill="none" stroke="black" d="M1063.37,-143.95C1103.68,-134.96 1153.28,-123.16 1205.68,-108.1"/>
<polygon fill="black" stroke="black" points="1206.87,-111.4 1215.5,-105.25 1204.92,-104.68 1206.87,-111.4"/>
</g>
<!-- src/Windows -->
<g id="node15" class="node">
<title>src/Windows</title>
<polygon fill="lightgrey" stroke="black" points="1421,-108 1314,-108 1314,-72 1421,-72 1421,-108"/>
<text text-anchor="middle" x="1367.5" y="-86.3" font-family="Times,serif" font-size="14.00">src/Windows</text>
</g>
<!-- MulleObjCOSFoundation&#45;&gt;src/Windows -->
<g id="edge14" class="edge">
<title>MulleObjCOSFoundation&#45;&gt;src/Windows</title>
<path fill="none" stroke="black" d="M1079.85,-147.58C1141.47,-138.47 1222.95,-125.3 1304.08,-107.97"/>
<polygon fill="black" stroke="black" points="1304.94,-111.37 1313.97,-105.84 1303.46,-104.52 1304.94,-111.37"/>
</g>
<!-- mulle&#45;mmap -->
<g id="node19" class="node">
<title>mulle&#45;mmap</title>
<polygon fill="lightgrey" stroke="black" points="1114,-36 1009,-36 1009,0 1114,0 1114,-36"/>
<text text-anchor="middle" x="1061.5" y="-14.3" font-family="Times,serif" font-size="14.00">mulle&#45;mmap</text>
</g>
<!-- src/OSBase&#45;&gt;mulle&#45;mmap -->
<g id="edge18" class="edge">
<title>src/OSBase&#45;&gt;mulle&#45;mmap</title>
<path fill="none" stroke="black" d="M1126.99,-71.7C1116.04,-62.88 1102.55,-52.03 1090.68,-42.47"/>
<polygon fill="black" stroke="black" points="1092.74,-39.65 1082.76,-36.1 1088.36,-45.1 1092.74,-39.65"/>
</g>
<!-- MulleObjCPlistFoundation -->
<g id="node20" class="node">
<title>MulleObjCPlistFoundation</title>
<polygon fill="lightgrey" stroke="black" points="1337,-36 1132,-36 1132,0 1337,0 1337,-36"/>
<text text-anchor="middle" x="1234.5" y="-14.3" font-family="Times,serif" font-size="14.00">MulleObjCPlistFoundation</text>
</g>
<!-- src/OSBase&#45;&gt;MulleObjCPlistFoundation -->
<g id="edge19" class="edge">
<title>src/OSBase&#45;&gt;MulleObjCPlistFoundation</title>
<path fill="none" stroke="black" d="M1169.76,-71.7C1180.59,-62.88 1193.92,-52.03 1205.66,-42.47"/>
<polygon fill="black" stroke="black" points="1207.94,-45.13 1213.49,-36.1 1203.52,-39.7 1207.94,-45.13"/>
</g>
</g>
</svg>
